<?xml version="1.0" standalone="no"?>
<!DOCTYPE svg PUBLIC "-//W3C//DTD SVG 20010904//EN"
 "http://www.w3.org/TR/2001/REC-SVG-20010904/DTD/svg10.dtd">
<svg version="1.0" xmlns="http://www.w3.org/2000/svg"
 width="100.000000pt" height="100.000000pt" viewBox="0 0 100.000000 100.000000"
 preserveAspectRatio="xMidYMid meet">
<metadata>
Created by potrace 1.11, written by Peter Selinger 2001-2013
</metadata>
<g transform="translate(0.000000,100.000000) scale(0.100000,-0.100000)"
fill="#000000" stroke="none">
<path d="M700 860 c-11 -11 -20 -24 -20 -30 0 -5 -10 -10 -22 -10 -36 -1 -156
-46 -201 -76 -23 -15 -48 -27 -57 -26 -36 2 -61 -10 -73 -37 -7 -18 -43 -50
-92 -83 -46 -31 -97 -76 -122 -108 -24 -30 -59 -72 -78 -93 -40 -45 -45 -79
-13 -101 29 -21 52 -20 74 1 38 38 155 10 233 -57 26 -22 35 -39 38 -67 5 -66
66 -86 104 -34 37 50 121 74 274 77 109 2 145 -5 145 -29 0 -18 35 -37 62 -32
44 9 63 62 33 95 -9 10 -18 37 -21 61 -19 160 -65 316 -129 438 -19 36 -35 71
-35 78 0 20 -38 53 -60 53 -11 0 -29 -9 -40 -20z m16 -90 c40 -17 50 -50 53
-163 l2 -86 -55 53 c-64 63 -130 90 -219 90 -72 0 -73 17 -3 58 43 26 173 70
186 64 3 -1 19 -9 36 -16z m115 -95 c36 -79 75 -212 84 -285 l6 -55 -35 55
c-20 30 -36 65 -36 78 0 12 -8 30 -19 41 -14 14 -19 39 -23 107 -3 49 -9 97
-13 107 -4 9 -4 17 0 17 3 0 19 -29 36 -65z m-271 -60 c19 -4 52 -16 72 -26
43 -22 110 -88 102 -101 -3 -4 -27 -6 -52 -3 -42 5 -142 12 -198 14 -15 1 -26
15 -43 56 -12 30 -20 59 -17 64 7 11 79 8 136 -4z m-154 -70 c9 -25 15 -47 13
-49 -2 -2 -26 -6 -54 -10 -68 -8 -150 -33 -210 -65 -27 -14 -54 -28 -58 -30
-5 -2 -1 11 8 29 22 43 91 109 165 158 59 40 63 41 90 27 18 -9 34 -31 46 -60z
m38 -108 c9 -35 7 -129 -5 -169 -13 -49 -38 -50 -86 -3 -51 49 -129 85 -188
87 l-48 1 24 18 c33 25 132 61 204 74 88 16 92 16 99 -8z m300 -8 c22 -11 47
-18 57 -16 10 3 25 -3 33 -12 23 -25 76 -134 70 -143 -3 -5 -51 -7 -107 -5
-104 4 -210 -10 -286 -37 l-44 -16 9 42 c4 24 8 83 8 132 l1 88 110 -6 c81 -5
120 -12 149 -27z"/>
</g>
</svg>
