<?xml version="1.0" standalone="no"?>
<!DOCTYPE svg PUBLIC "-//W3C//DTD SVG 20010904//EN"
 "http://www.w3.org/TR/2001/REC-SVG-20010904/DTD/svg10.dtd">
<svg version="1.0" xmlns="http://www.w3.org/2000/svg"
 width="1000.000000pt" height="1000.000000pt" viewBox="0 0 1000.000000 1000.000000"
 preserveAspectRatio="xMidYMid meet">
<metadata>
Created by potrace 1.11, written by Peter Selinger 2001-2013
</metadata>
<g transform="translate(0.000000,1000.000000) scale(0.100000,-0.100000)"
fill="#000000" stroke="none">
<path d="M7268 8134 c-206 -50 -347 -209 -387 -439 -1 -3 -1 -24 -1 -48 0 -28
-5 -44 -12 -45 -13 -1 -279 -91 -403 -137 -38 -14 -77 -28 -85 -30 -8 -2 -67
-22 -130 -45 -63 -23 -140 -50 -170 -60 -30 -10 -107 -37 -170 -60 -63 -23
-140 -50 -170 -60 -30 -10 -107 -37 -170 -60 -63 -23 -140 -50 -170 -60 -30
-10 -107 -37 -170 -60 -63 -23 -140 -50 -170 -60 -54 -18 -112 -39 -340 -120
-129 -46 -261 -90 -272 -90 -4 0 -19 -5 -35 -12 -15 -6 -34 -12 -42 -14 -7 -1
-36 -11 -65 -22 -73 -29 -90 -35 -96 -37 -3 0 -15 -4 -27 -9 -17 -5 -34 2 -75
34 -163 130 -355 152 -537 64 -193 -95 -304 -306 -272 -519 l13 -79 -34 -29
c-18 -15 -58 -47 -88 -70 -30 -23 -64 -50 -75 -61 -22 -20 -292 -239 -334
-270 -14 -11 -53 -43 -86 -71 -52 -44 -167 -137 -229 -185 -11 -8 -30 -25 -43
-37 -13 -12 -67 -57 -121 -99 -53 -43 -113 -91 -133 -108 -20 -17 -48 -40 -63
-50 -15 -11 -39 -31 -54 -44 -15 -13 -81 -67 -147 -120 -66 -53 -122 -99 -125
-102 -4 -5 -100 -84 -150 -123 -69 -55 -166 -133 -170 -137 -3 -3 -22 -18 -42
-33 -21 -15 -52 -41 -70 -58 -18 -17 -60 -51 -93 -77 -33 -25 -89 -71 -124
-101 -35 -31 -87 -74 -116 -96 -29 -22 -87 -68 -129 -102 l-76 -62 -44 19
c-121 54 -279 47 -408 -17 -301 -151 -367 -554 -128 -793 183 -183 466 -195
672 -27 l56 46 69 -25 c37 -14 79 -29 93 -34 14 -4 45 -16 70 -27 70 -31 84
-37 95 -38 6 0 16 -4 22 -8 12 -8 130 -52 223 -84 25 -8 50 -18 55 -23 9 -6
161 -65 240 -92 17 -6 71 -28 121 -49 50 -21 99 -40 110 -42 10 -1 25 -6 31
-10 7 -5 52 -22 100 -38 48 -17 106 -39 128 -49 22 -10 78 -32 125 -50 47 -17
121 -46 165 -63 44 -17 82 -32 85 -32 3 0 10 -3 15 -7 12 -7 200 -78 208 -78
3 0 26 -9 51 -20 26 -11 48 -19 51 -19 3 -1 19 -8 35 -16 16 -8 32 -15 35 -15
3 0 22 -7 43 -16 20 -8 73 -28 117 -43 44 -16 109 -41 145 -56 63 -27 179 -71
270 -102 25 -8 46 -16 47 -17 1 -1 8 -33 17 -72 42 -201 203 -358 404 -394
204 -37 426 75 522 262 40 77 34 74 185 83 55 3 123 8 150 10 28 3 86 7 130
10 44 3 159 12 255 20 96 8 213 17 260 20 47 3 112 7 145 10 374 29 460 36
525 40 41 3 95 8 120 10 25 2 81 7 125 10 87 6 122 9 325 25 131 10 180 14
340 25 41 3 156 12 255 20 99 8 214 17 255 20 41 2 98 7 125 9 28 3 88 7 135
11 47 3 139 9 205 15 157 13 241 19 345 26 47 3 132 9 190 15 58 5 123 9 145
8 39 0 41 -2 69 -61 51 -108 184 -216 301 -246 180 -46 357 1 486 129 193 193
193 505 -1 699 -65 65 -175 125 -248 135 -26 4 -55 9 -66 12 -19 5 -57 80 -96
193 -13 35 -30 80 -38 100 -9 19 -16 37 -17 40 -1 3 -8 21 -17 40 -8 20 -25
65 -38 100 -12 36 -30 83 -40 105 -31 69 -70 168 -70 177 0 7 -17 48 -51 123
-12 27 -109 277 -113 290 -1 6 -9 26 -18 45 -9 19 -26 64 -38 100 -13 36 -38
98 -56 138 -19 40 -34 76 -34 80 0 5 -11 35 -24 68 -26 66 -36 93 -35 97 0 1
-11 25 -25 53 -14 29 -26 56 -26 61 0 7 -65 176 -98 253 -5 14 -20 50 -31 80
-11 30 -26 69 -32 85 -7 17 -13 32 -14 35 -1 3 -11 27 -23 53 -12 27 -22 52
-22 55 0 10 -58 159 -86 220 -13 29 -24 56 -24 61 0 4 -11 34 -24 67 -27 69
-37 97 -37 104 -1 3 -5 10 -10 16 -5 6 -31 69 -58 140 -65 170 -148 382 -165
419 -7 17 -23 57 -36 90 -27 74 -119 306 -172 440 -23 55 -51 129 -64 164
l-24 65 26 33 c37 49 82 150 94 213 14 70 4 189 -21 256 -90 239 -341 377
-581 318z m-119 -924 c51 -25 84 -36 162 -54 24 -5 27 -12 38 -88 6 -46 13
-99 15 -118 6 -58 16 -126 52 -335 19 -110 36 -223 39 -250 7 -80 14 -128 50
-345 19 -113 37 -225 39 -250 10 -88 17 -137 51 -342 19 -113 35 -215 35 -226
0 -11 -24 -37 -61 -66 -54 -42 -64 -46 -88 -38 -43 16 -66 23 -70 22 -2 -1 -7
2 -10 7 -3 5 -22 14 -41 20 -19 6 -80 27 -135 48 -55 20 -176 63 -270 97 -93
33 -188 69 -209 79 -22 10 -45 19 -52 19 -6 0 -24 7 -40 14 -15 8 -31 13 -36
10 -4 -3 -8 -1 -8 4 0 5 -10 12 -22 15 -13 3 -66 21 -118 40 -52 19 -174 63
-270 97 -96 34 -179 66 -185 70 -5 3 -39 17 -75 29 -36 12 -78 29 -95 36 -16
7 -50 20 -75 28 -152 52 -452 161 -487 177 -24 11 -47 20 -53 20 -6 0 -18 4
-28 9 -9 5 -43 19 -74 30 -32 12 -82 30 -110 40 -29 11 -143 52 -253 91 -110
40 -204 75 -210 78 -5 4 -14 7 -20 9 -5 1 -46 16 -90 33 -44 17 -95 36 -113
41 -37 11 -39 14 -45 84 l-5 51 51 16 c29 9 91 30 139 47 48 17 95 33 105 35
10 1 25 5 33 9 8 3 24 8 35 13 11 4 29 9 40 11 11 2 24 8 29 13 6 6 20 10 33
10 13 0 23 4 23 8 0 4 8 8 18 9 9 1 28 6 42 11 14 5 28 10 33 11 4 0 21 8 37
16 17 9 30 13 30 10 0 -3 14 1 30 10 17 9 30 13 30 9 0 -4 6 -2 13 3 11 9 80
34 172 62 22 7 49 16 60 21 11 5 49 18 85 30 36 12 74 25 85 30 11 5 49 18 85
30 36 12 74 25 85 30 11 5 54 20 95 34 41 14 127 44 190 66 63 23 140 50 170
60 30 10 107 37 170 60 63 23 140 50 170 60 30 10 107 37 170 60 63 22 147 52
185 65 39 14 113 40 165 58 l95 34 54 -49 c30 -27 79 -62 110 -78z m655 -839
c13 -36 30 -79 37 -96 7 -16 13 -32 14 -35 1 -3 9 -23 19 -45 10 -22 29 -71
43 -110 14 -38 30 -81 36 -95 6 -14 11 -27 12 -30 1 -3 9 -23 19 -45 9 -22 33
-83 52 -135 20 -52 46 -117 59 -145 12 -27 28 -68 35 -90 7 -22 29 -80 50
-130 36 -84 108 -267 113 -290 2 -5 11 -26 20 -45 9 -19 32 -79 52 -133 19
-55 41 -109 47 -120 6 -12 36 -85 66 -162 103 -267 211 -543 243 -620 11 -27
21 -54 23 -60 1 -5 5 -15 9 -22 4 -6 23 -54 42 -107 19 -52 48 -125 65 -162
16 -37 29 -69 27 -70 -4 -5 -97 125 -97 136 0 4 -3 10 -7 12 -11 5 -88 99
-101 125 -7 12 -18 27 -25 35 -7 7 -35 45 -62 83 -27 39 -68 93 -90 120 -23
28 -51 64 -61 80 -11 17 -52 75 -93 129 l-74 98 35 66 c82 152 86 306 12 460
-64 133 -216 251 -345 268 -62 8 -63 10 -73 104 -3 25 -21 140 -40 255 -19
116 -38 235 -41 265 -8 70 -10 83 -50 330 -18 113 -36 229 -39 258 -3 30 -9
58 -12 63 -3 5 -2 14 2 21 8 12 37 -48 78 -161z m-3499 -411 c11 -5 49 -19 85
-31 36 -12 75 -29 88 -37 12 -8 22 -11 22 -8 0 4 14 0 30 -9 17 -9 30 -13 30
-9 0 4 6 2 13 -4 12 -10 156 -64 297 -112 30 -10 93 -33 140 -50 47 -17 105
-38 130 -47 25 -8 48 -20 52 -27 4 -6 8 -7 8 -3 0 5 6 5 13 0 6 -4 17 -8 22
-9 6 -2 78 -28 160 -59 83 -31 175 -65 205 -75 30 -10 93 -33 140 -50 47 -17
105 -38 130 -47 25 -8 69 -26 98 -39 29 -13 56 -24 60 -25 4 -1 17 -5 28 -9
12 -5 61 -23 110 -40 49 -18 145 -52 214 -77 69 -24 144 -51 168 -59 24 -8 64
-25 90 -36 26 -12 53 -22 60 -24 8 -1 21 -6 30 -10 9 -4 22 -8 27 -10 6 -1 53
-19 105 -39 52 -20 106 -41 120 -45 14 -5 77 -27 140 -50 63 -22 135 -48 160
-56 52 -18 109 -43 96 -44 -5 0 -61 -9 -125 -20 -64 -10 -143 -22 -176 -25
-33 -3 -116 -14 -185 -26 -69 -11 -147 -22 -175 -24 -27 -2 -104 -13 -170 -24
-66 -11 -149 -23 -185 -26 -36 -3 -117 -14 -180 -25 -63 -10 -136 -21 -162
-24 -27 -3 -69 -9 -95 -12 -27 -3 -100 -14 -163 -24 -63 -11 -142 -22 -175
-25 -33 -3 -112 -14 -175 -25 -63 -11 -144 -22 -180 -25 -36 -3 -117 -14 -180
-25 -63 -11 -142 -22 -175 -25 -33 -3 -114 -14 -180 -24 -66 -11 -147 -23
-180 -26 -33 -4 -112 -15 -175 -25 -143 -24 -199 -29 -205 -20 -2 4 -7 35 -9
69 -3 34 -8 77 -11 94 -5 31 -13 108 -20 192 -2 22 -6 63 -10 90 -3 28 -8 70
-10 95 -2 25 -6 65 -9 90 -3 25 -8 72 -11 105 -3 33 -8 71 -10 85 -3 14 -7 48
-9 75 -11 132 -17 192 -21 215 -3 14 -7 52 -10 85 -3 33 -8 83 -11 110 -2 28
-7 70 -9 95 -2 25 -6 54 -9 65 -4 16 5 26 49 49 30 16 76 49 102 75 l48 46 55
-18 c30 -10 64 -22 75 -27z m-669 -112 l42 -12 10 -70 c9 -61 20 -159 27 -256
1 -14 5 -47 9 -75 3 -27 8 -70 11 -95 2 -25 9 -89 15 -142 5 -54 14 -142 20
-195 18 -174 21 -207 30 -267 5 -32 9 -61 8 -65 -1 -3 2 -37 6 -76 5 -38 10
-81 11 -95 1 -14 6 -60 10 -102 5 -45 4 -78 -1 -79 -56 -5 -102 -12 -202 -29
-65 -11 -141 -22 -168 -24 -61 -6 -108 -12 -254 -36 -63 -11 -144 -22 -180
-25 -36 -3 -118 -15 -184 -26 -65 -11 -142 -22 -170 -24 -28 -2 -105 -13 -171
-24 -66 -11 -149 -23 -185 -26 -36 -3 -117 -15 -180 -25 -63 -11 -144 -22
-180 -25 -36 -3 -117 -14 -180 -25 -63 -10 -140 -21 -170 -24 -30 -3 -109 -15
-175 -25 -66 -11 -149 -23 -185 -26 -56 -5 -130 -16 -205 -30 -16 -3 -14 1 10
22 17 14 53 45 81 69 28 25 71 59 95 76 24 17 46 34 49 38 7 9 139 119 174
145 15 11 40 31 54 43 15 13 81 67 147 120 66 52 138 111 161 131 22 20 51 43
64 51 12 8 32 24 44 35 11 12 75 64 141 116 66 53 127 102 135 111 13 12 161
132 314 253 21 17 50 41 65 53 14 13 80 67 146 120 66 53 145 117 175 144 30
26 116 95 190 154 74 59 160 128 190 154 30 26 89 74 130 107 l74 59 56 -34
c30 -18 74 -38 96 -44z m3838 -1379 c102 -160 311 -246 499 -206 l68 14 15
-29 c8 -15 18 -28 22 -28 4 0 15 -13 24 -28 9 -15 52 -75 95 -132 43 -57 115
-154 160 -216 44 -62 106 -146 137 -186 116 -152 126 -166 126 -176 0 -6 3
-12 8 -14 4 -1 30 -32 56 -68 27 -36 61 -81 76 -100 70 -92 178 -239 203 -277
l28 -42 -25 -34 c-14 -18 -39 -63 -55 -99 -16 -35 -36 -65 -43 -65 -16 -1
-131 -9 -363 -28 -99 -8 -216 -17 -260 -20 -44 -2 -107 -7 -140 -10 -33 -2
-150 -12 -260 -20 -110 -8 -227 -17 -260 -20 -33 -3 -91 -7 -130 -10 -38 -3
-155 -12 -260 -20 -104 -8 -226 -17 -270 -20 -44 -3 -100 -8 -125 -10 -25 -2
-79 -7 -120 -10 -177 -12 -236 -17 -260 -20 -14 -2 -72 -7 -130 -10 -58 -4
-123 -9 -145 -11 -22 -1 -78 -5 -125 -9 -47 -3 -170 -13 -275 -21 -104 -8
-219 -16 -255 -19 -116 -8 -202 -15 -390 -30 -172 -13 -321 -25 -379 -28 -21
-2 -30 9 -64 77 -65 129 -197 240 -313 264 -44 9 -48 19 -58 135 -3 42 -8 82
-11 89 -2 7 -7 47 -10 88 -8 96 -13 144 -20 200 -3 25 -8 70 -10 100 -2 30 -9
84 -14 120 -5 36 -10 72 -9 80 0 14 -6 77 -17 170 -2 19 -6 58 -9 87 -2 28 -7
56 -11 62 -3 6 -4 15 -1 20 3 5 2 31 -3 57 -5 27 -7 52 -3 56 4 3 41 9 82 12
41 4 127 15 190 26 63 10 142 21 175 25 33 3 113 15 178 26 65 11 145 22 177
24 32 2 112 13 177 24 65 11 141 23 168 25 62 7 94 11 220 31 55 8 120 17 145
20 25 3 56 7 70 9 14 2 45 7 70 10 25 4 83 13 130 21 47 8 112 17 146 19 33 3
114 14 180 25 65 11 142 22 169 25 85 8 137 16 220 31 44 8 109 17 145 20 36
3 117 14 180 25 63 11 144 22 180 25 36 3 99 12 140 19 121 22 120 23 164 -45z
m-3596 -446 c-1 -5 2 -39 7 -78 4 -38 9 -83 10 -100 2 -16 8 -79 14 -140 6
-60 13 -132 16 -160 3 -27 7 -66 10 -85 3 -19 7 -60 10 -90 3 -30 7 -71 10
-90 3 -19 7 -57 10 -85 2 -27 9 -95 15 -150 6 -55 15 -136 20 -180 5 -49 5
-81 -1 -83 -37 -14 -138 -94 -171 -136 -22 -28 -48 -50 -57 -49 -30 3 -296
106 -303 117 -4 6 -8 7 -8 3 0 -5 -6 -5 -12 0 -7 4 -15 8 -18 9 -3 0 -16 5
-30 11 -14 6 -83 31 -155 57 -71 26 -143 53 -160 60 -16 7 -66 27 -110 45 -44
17 -127 49 -185 72 -58 22 -148 56 -200 75 -52 19 -133 51 -180 70 -47 19 -92
37 -100 39 -21 6 -287 108 -335 129 -22 10 -89 35 -150 57 -60 22 -119 44
-130 49 -25 12 -92 38 -270 105 -247 94 -330 127 -338 134 -7 7 157 36 258 46
70 7 127 15 215 30 47 8 112 17 145 20 33 4 112 15 175 25 63 10 144 22 180
25 36 3 117 15 180 25 63 11 138 21 165 24 79 8 134 15 225 31 78 13 111 18
225 31 22 2 78 11 125 19 47 8 108 17 135 19 73 8 115 14 255 37 68 11 149 22
180 24 30 3 102 14 160 24 115 21 171 25 168 14z"/>
</g>
</svg>
